<?xml version="1.0" encoding="UTF-8"?>
<svg width="512" height="512" viewBox="0 0 64 64" fill="none" xmlns="http://www.w3.org/2000/svg">
  <defs>
    <linearGradient id="g" x1="8" y1="8" x2="56" y2="56" gradientUnits="userSpaceOnUse">
      <stop offset="0" stop-color="#007AFF"/>
      <stop offset="1" stop-color="#66A3FF"/>
    </linearGradient>
  </defs>
  <!-- Rounded background -->
  <rect x="3" y="3" width="58" height="58" rx="14" fill="url(#g)"/>
  <!-- Letter L built from a rounded path -->
  <path d="M24 16a2 2 0 0 0-2 2v28a2 2 0 0 0 2 2h20a2 2 0 0 0 2-2v-4a2 2 0 0 0-2-2H30V18a2 2 0 0 0-2-2h-4Z" fill="#FFFFFF"/>
  <!-- subtle inner shine -->
  <path d="M10 18c6-6 14-10 22-10s16 4 22 10" stroke="#FFFFFF" stroke-opacity="0.15" stroke-width="2" stroke-linecap="round"/>
</svg>

